# Blender v3.3.1 OBJ File: 'ConstructionStruts.blend'
# www.blender.org
o Cube
v -0.500000 0.500000 0.500000
v -0.500000 -0.500000 0.500000
v -0.500000 0.500000 -0.500000
v -0.500000 -0.500000 -0.500000
v 0.500000 0.500000 0.500000
v 0.500000 -0.500000 0.500000
v 0.500000 0.500000 -0.500000
v 0.500000 -0.500000 -0.500000
v -0.450000 0.500000 -0.450000
v 0.450000 0.500000 -0.450000
v -0.450000 0.500000 0.450000
v 0.450000 0.500000 0.450000
v 0.450000 -0.500000 0.450000
v 0.450000 -0.500000 -0.450000
v -0.450000 -0.500000 0.450000
v -0.450000 -0.500000 -0.450000
v -0.500000 0.450000 0.450000
v -0.500000 -0.450000 0.450000
v -0.500000 0.450000 -0.450000
v -0.500000 -0.450000 -0.450000
v 0.500000 -0.450000 0.450000
v 0.500000 -0.450000 -0.450000
v 0.500000 0.450000 -0.450000
v 0.500000 0.450000 0.450000
v 0.450000 -0.450000 -0.500000
v 0.450000 0.450000 -0.500000
v -0.450000 0.450000 -0.500000
v -0.450000 -0.450000 -0.500000
v -0.450000 -0.450000 0.500000
v 0.450000 -0.450000 0.500000
v -0.450000 0.450000 0.500000
v 0.450000 0.450000 0.500000
v 0.500000 -0.447750 0.405000
v 0.500000 -0.405000 0.447750
v 0.500000 0.450000 -0.405000
v 0.500000 0.405000 -0.450000
v -0.500000 0.405000 0.449250
v -0.500000 0.450000 0.404250
v -0.500000 -0.405000 -0.448500
v -0.500000 -0.447750 -0.405750
v -0.500000 0.450000 0.449250
v -0.500000 -0.450000 -0.450750
v 0.450375 -0.450000 -0.500375
v -0.449625 0.450000 -0.500375
v 0.405375 -0.447750 -0.500375
v 0.448125 -0.405000 -0.500375
v -0.404625 0.450000 -0.500375
v -0.449625 0.405000 -0.500375
v 0.449625 0.405000 0.499625
v 0.404625 0.450000 0.499625
v -0.448125 -0.405000 0.499625
v -0.405375 -0.447750 0.499625
v 0.449625 0.450000 0.499625
v -0.450375 -0.450000 0.499625
vt 0.881421 0.632882
vt 0.881421 0.632882
vt 0.881421 0.632882
vt 0.881421 0.632882
vt 0.881421 0.632882
vt 0.881421 0.632882
vt 0.881421 0.632882
vt 0.881421 0.632882
vt 0.881421 0.632882
vt 0.881421 0.632882
vt 0.881421 0.632882
vt 0.881421 0.632882
vt 0.881421 0.632882
vt 0.881421 0.632882
vt 0.881421 0.632882
vt 0.881421 0.632882
vt 0.881421 0.632882
vt 0.881421 0.632882
vt 0.881421 0.632882
vt 0.881421 0.632882
vt 0.881421 0.632882
vt 0.881421 0.632882
vt 0.881421 0.632882
vt 0.881421 0.632882
vt 0.881421 0.632882
vt 0.881421 0.632882
vt 0.881421 0.632882
vt 0.881421 0.632882
vt 0.881421 0.632882
vt 0.881421 0.632882
vt 0.881421 0.632882
vt 0.881421 0.632882
vt 0.881421 0.632882
vt 0.881421 0.632882
vt 0.881421 0.632882
vt 0.881421 0.632882
vt 0.881421 0.632882
vt 0.881421 0.632882
vt 0.881421 0.632882
vt 0.881421 0.632882
vt 0.881421 0.632882
vt 0.881421 0.632882
vt 0.881421 0.632882
vt 0.881421 0.632882
vt 0.881421 0.632882
vt 0.881421 0.632882
vt 0.881421 0.632882
vt 0.881421 0.632882
vt 0.881421 0.632882
vt 0.881421 0.632882
vt 0.881421 0.632882
vt 0.881421 0.632882
vt 0.881421 0.632882
vt 0.881421 0.632882
vn 0.0000 1.0000 0.0000
vn 0.0000 0.0000 -1.0000
vn 1.0000 0.0000 0.0000
vn 0.0000 -1.0000 0.0000
vn -1.0000 0.0000 0.0000
vn 0.0000 0.0000 1.0000
s off
f 7/1/1 12/2/1 5/3/1
f 8/4/2 26/5/2 7/1/2
f 5/3/3 23/6/3 7/1/3
f 2/7/4 13/8/4 6/9/4
f 3/10/5 17/11/5 1/12/5
f 5/3/6 30/13/6 6/9/6
f 1/12/1 9/14/1 3/10/1
f 5/3/1 11/15/1 1/12/1
f 3/10/1 10/16/1 7/1/1
f 8/4/4 16/17/4 4/18/4
f 6/9/4 14/19/4 8/4/4
f 4/18/4 15/20/4 2/7/4
f 4/18/5 19/21/5 3/10/5
f 1/12/5 18/22/5 2/7/5
f 2/7/5 20/23/5 4/18/5
f 6/9/3 24/24/3 5/3/3
f 7/1/3 22/25/3 8/4/3
f 8/4/3 21/26/3 6/9/3
f 4/18/2 25/27/2 8/4/2
f 7/1/2 27/28/2 3/10/2
f 3/10/2 28/29/2 4/18/2
f 6/9/6 29/30/6 2/7/6
f 1/12/6 32/31/6 5/3/6
f 2/7/6 31/32/6 1/12/6
f 36/33/3 34/34/3 33/35/3
f 37/36/5 39/37/5 40/38/5
f 45/39/2 48/40/2 47/41/2
f 52/42/6 49/43/6 50/44/6
f 7/1/1 10/16/1 12/2/1
f 8/4/2 25/27/2 26/5/2
f 5/3/3 24/24/3 23/6/3
f 2/7/4 15/20/4 13/8/4
f 3/10/5 19/21/5 17/11/5
f 5/3/6 32/31/6 30/13/6
f 1/12/1 11/15/1 9/14/1
f 5/3/1 12/2/1 11/15/1
f 3/10/1 9/14/1 10/16/1
f 8/4/4 14/19/4 16/17/4
f 6/9/4 13/8/4 14/19/4
f 4/18/4 16/17/4 15/20/4
f 4/18/5 20/23/5 19/21/5
f 1/12/5 17/11/5 18/22/5
f 2/7/5 18/22/5 20/23/5
f 6/9/3 21/26/3 24/24/3
f 7/1/3 23/6/3 22/25/3
f 8/4/3 22/25/3 21/26/3
f 4/18/2 28/29/2 25/27/2
f 7/1/2 26/5/2 27/28/2
f 3/10/2 27/28/2 28/29/2
f 6/9/6 30/13/6 29/30/6
f 1/12/6 31/32/6 32/31/6
f 2/7/6 29/30/6 31/32/6
f 36/33/3 23/6/3 35/45/3
f 35/45/3 34/34/3 36/33/3
f 34/34/3 21/26/3 33/35/3
f 37/36/5 41/46/5 38/47/5
f 38/47/5 39/37/5 37/36/5
f 39/37/5 42/48/5 40/38/5
f 48/40/2 44/49/2 47/41/2
f 47/41/2 46/50/2 45/39/2
f 46/50/2 43/51/2 45/39/2
f 49/43/6 53/52/6 50/44/6
f 50/44/6 51/53/6 52/42/6
f 51/53/6 54/54/6 52/42/6
