# Blender 3.3.1
# www.blender.org
mtllib ConstructionStruts.mtl
o Cube
v 0.500000 1.000000 -0.500000
v 0.500000 0.000000 -0.500000
v 0.500000 1.000000 0.500000
v 0.500000 0.000000 0.500000
v -0.500000 1.000000 -0.500000
v -0.500000 0.000000 -0.500000
v -0.500000 1.000000 0.500000
v -0.500000 0.000000 0.500000
v 0.450000 1.000000 0.450000
v -0.450000 1.000000 0.450000
v 0.450000 1.000000 -0.450000
v -0.450000 1.000000 -0.450000
v -0.450000 0.000000 -0.450000
v -0.450000 0.000000 0.450000
v 0.450000 0.000000 -0.450000
v 0.450000 0.000000 0.450000
v 0.500000 0.950000 -0.450000
v 0.500000 0.050000 -0.450000
v 0.500000 0.950000 0.450000
v 0.500000 0.050000 0.450000
v -0.500000 0.050000 -0.450000
v -0.500000 0.050000 0.450000
v -0.500000 0.950000 0.450000
v -0.500000 0.950000 -0.450000
v -0.450000 0.050000 0.500000
v -0.450000 0.950000 0.500000
v 0.450000 0.950000 0.500000
v 0.450000 0.050000 0.500000
v 0.450000 0.050000 -0.500000
v -0.450000 0.050000 -0.500000
v 0.450000 0.950000 -0.500000
v -0.450000 0.950000 -0.500000
v -0.500000 0.052250 -0.405000
v -0.500000 0.095000 -0.447750
v -0.500000 0.950000 0.405000
v -0.500000 0.905000 0.450000
v 0.500000 0.905000 -0.449250
v 0.500000 0.950000 -0.404250
v 0.500000 0.095000 0.448500
v 0.500000 0.052250 0.405750
v 0.500000 0.950000 -0.449250
v 0.500000 0.050000 0.450750
v -0.450375 0.050000 0.500375
v 0.449625 0.950000 0.500375
v -0.405375 0.052250 0.500375
v -0.448125 0.095000 0.500375
v 0.404625 0.950000 0.500375
v 0.449625 0.905000 0.500375
v -0.449625 0.905000 -0.499625
v -0.404625 0.950000 -0.499625
v 0.448125 0.095000 -0.499625
v 0.405375 0.052250 -0.499625
v -0.449625 0.950000 -0.499625
v 0.450375 0.050000 -0.499625
vn -0.0000 1.0000 -0.0000
vn -0.0000 -0.0000 1.0000
vn -1.0000 -0.0000 -0.0000
vn -0.0000 -1.0000 -0.0000
vn 1.0000 -0.0000 -0.0000
vn -0.0000 -0.0000 -1.0000
vt 0.881421 0.632882
vt 0.881421 0.632882
vt 0.881421 0.632882
vt 0.881421 0.632882
vt 0.881421 0.632882
vt 0.881421 0.632882
vt 0.881421 0.632882
vt 0.881421 0.632882
vt 0.881421 0.632882
vt 0.881421 0.632882
vt 0.881421 0.632882
vt 0.881421 0.632882
vt 0.881421 0.632882
vt 0.881421 0.632882
vt 0.881421 0.632882
vt 0.881421 0.632882
vt 0.881421 0.632882
vt 0.881421 0.632882
vt 0.881421 0.632882
vt 0.881421 0.632882
vt 0.881421 0.632882
vt 0.881421 0.632882
vt 0.881421 0.632882
vt 0.881421 0.632882
vt 0.881421 0.632882
vt 0.881421 0.632882
vt 0.881421 0.632882
vt 0.881421 0.632882
vt 0.881421 0.632882
vt 0.881421 0.632882
vt 0.881421 0.632882
vt 0.881421 0.632882
vt 0.881421 0.632882
vt 0.881421 0.632882
vt 0.881421 0.632882
vt 0.881421 0.632882
vt 0.881421 0.632882
vt 0.881421 0.632882
vt 0.881421 0.632882
vt 0.881421 0.632882
vt 0.881421 0.632882
vt 0.881421 0.632882
vt 0.881421 0.632882
vt 0.881421 0.632882
vt 0.881421 0.632882
vt 0.881421 0.632882
vt 0.881421 0.632882
vt 0.881421 0.632882
vt 0.881421 0.632882
vt 0.881421 0.632882
vt 0.881421 0.632882
vt 0.881421 0.632882
vt 0.881421 0.632882
vt 0.881421 0.632882
s 0
usemtl Material
f 5/5/1 7/7/1 10/10/1 12/12/1
f 7/7/2 8/8/2 25/25/2 26/26/2
f 7/7/3 5/5/3 24/24/3 23/23/3
f 6/6/4 2/2/4 15/15/4 13/13/4
f 1/1/5 3/3/5 19/19/5 17/17/5
f 6/6/6 5/5/6 32/32/6 30/30/6
f 3/3/1 1/1/1 11/11/1 9/9/1
f 1/1/1 5/5/1 12/12/1 11/11/1
f 7/7/1 3/3/1 9/9/1 10/10/1
f 4/4/4 8/8/4 14/14/4 16/16/4
f 8/8/4 6/6/4 13/13/4 14/14/4
f 2/2/4 4/4/4 16/16/4 15/15/4
f 3/3/5 4/4/5 20/20/5 19/19/5
f 2/2/5 1/1/5 17/17/5 18/18/5
f 4/4/5 2/2/5 18/18/5 20/20/5
f 5/5/3 6/6/3 21/21/3 24/24/3
f 8/8/3 7/7/3 23/23/3 22/22/3
f 6/6/3 8/8/3 22/22/3 21/21/3
f 8/8/2 4/4/2 28/28/2 25/25/2
f 3/3/2 7/7/2 26/26/2 27/27/2
f 4/4/2 3/3/2 27/27/2 28/28/2
f 2/2/6 6/6/6 30/30/6 29/29/6
f 5/5/6 1/1/6 31/31/6 32/32/6
f 1/1/6 2/2/6 29/29/6 31/31/6
f 23/23/3 35/35/3 34/34/3 21/21/3 33/33/3 36/36/3
f 41/41/5 38/38/5 39/39/5 42/42/5 40/40/5 37/37/5
f 44/44/2 47/47/2 46/46/2 43/43/2 45/45/2 48/48/2
f 53/53/6 50/50/6 51/51/6 54/54/6 52/52/6 49/49/6
